<?xml version="1.0" encoding="UTF-8" standalone="no"?><!-- Generator: Gravit.io --><svg xmlns="http://www.w3.org/2000/svg" xmlns:xlink="http://www.w3.org/1999/xlink" style="isolation:isolate" viewBox="216.995 422.005 320.005 169.995" width="320.005pt" height="169.995pt"><path d=" M 537 437.005 L 537 497.005 C 537 505.285 530.29 512.005 522 512.005 C 513.71 512.005 507 505.285 507 497.005 L 507 473.215 L 452.61 527.605 C 446.75 533.465 437.26 533.465 431.4 527.605 L 407 503.215 L 347.61 562.605 C 341.75 568.465 332.26 568.465 326.4 562.605 L 297 533.215 L 242.61 587.605 C 236.75 593.465 227.25 593.465 221.39 587.605 C 215.53 581.745 215.53 572.255 221.39 566.395 L 286.39 501.395 C 292.25 495.535 301.74 495.535 307.6 501.395 L 337 530.795 L 396.39 471.405 C 402.25 465.545 411.74 465.545 417.6 471.405 L 441.98 495.795 L 485.79 452.005 L 462 452.005 C 453.71 452.005 447 445.285 447 437.005 C 447 428.725 453.71 422.005 462 422.005 L 522 422.005 C 530.29 422.005 537 428.725 537 437.005 Z " /></svg>
