<?xml version="1.0" encoding="UTF-8" standalone="no"?><!-- Generator: Gravit.io --><svg xmlns="http://www.w3.org/2000/svg" xmlns:xlink="http://www.w3.org/1999/xlink" style="isolation:isolate" viewBox="295 333.777 279.321 309.743" width="279.321pt" height="309.743pt"><g><g><path d=" M 374.075 338.921 C 367.207 332.062 356.08 332.062 349.212 338.921 L 299.721 388.412 C 293.263 395.343 293.453 406.145 300.152 412.844 C 303.502 416.193 307.877 417.916 312.281 417.994 Q 316.685 418.071 342.052 417.994 L 342.052 534.408 C 342.052 544.124 351.928 552 361.644 552 C 371.359 552 381.235 544.124 381.235 534.408 L 381.235 417.994 Q 405.838 417.994 409.724 417.994 C 414.275 417.994 418.805 415.402 422.227 411.948 C 428.57 405.544 429.047 395.382 423.331 388.412 L 374.075 338.921 Z " /><path d=" M 495.246 638.375 C 502.114 645.235 513.24 645.235 520.108 638.375 L 569.599 588.885 C 576.058 581.953 575.867 571.152 569.168 564.453 C 565.819 561.103 561.443 559.381 557.039 559.303 Q 552.635 559.226 527.269 559.303 L 527.269 442.888 C 527.269 433.173 517.393 425.297 507.677 425.297 C 497.962 425.297 488.086 433.173 488.086 442.888 L 488.086 559.303 Q 463.482 559.303 459.596 559.303 C 455.046 559.303 450.515 561.895 447.094 565.349 C 440.75 571.753 440.274 581.915 445.989 588.885 L 495.246 638.375 Z " /></g></g></svg>
